<mxfile host="app.diagrams.net" modified="2024-04-05T13:38:53.809Z" agent="Mozilla/5.0 (Windows NT 10.0; Win64; x64) AppleWebKit/537.36 (KHTML, like Gecko) Chrome/109.0.0.0 Safari/537.36" etag="3bl8T5u8plEruDKLGDae" version="24.2.1" type="device">
  <diagram name="第 1 页" id="hYKCOgf0xL3oVbTRl8cX">
    <mxGraphModel dx="1250" dy="700" grid="1" gridSize="10" guides="1" tooltips="1" connect="1" arrows="1" fold="1" page="1" pageScale="1" pageWidth="1169" pageHeight="827" math="0" shadow="0">
      <root>
        <mxCell id="0" />
        <mxCell id="1" parent="0" />
        <mxCell id="e5-1EZwCJgzJsYeVNrzZ-12" style="edgeStyle=orthogonalEdgeStyle;rounded=0;orthogonalLoop=1;jettySize=auto;html=1;exitX=1;exitY=0.5;exitDx=0;exitDy=0;entryX=0;entryY=0.5;entryDx=0;entryDy=0;" edge="1" parent="1" source="E1X3tv5tJPRmaZfX1eh5-3" target="e5-1EZwCJgzJsYeVNrzZ-9">
          <mxGeometry relative="1" as="geometry" />
        </mxCell>
        <mxCell id="E1X3tv5tJPRmaZfX1eh5-3" value="选品" style="rounded=1;whiteSpace=wrap;html=1;fillColor=#d5e8d4;strokeColor=#82b366;" parent="1" vertex="1">
          <mxGeometry x="10" y="440" width="60" height="40" as="geometry" />
        </mxCell>
        <mxCell id="E1X3tv5tJPRmaZfX1eh5-4" value="&lt;h1 style=&quot;margin-top: 0px;&quot;&gt;Workflow&lt;/h1&gt;&lt;p&gt;1.适用平台：TEMU&lt;/p&gt;&lt;p&gt;&amp;nbsp;&lt;span style=&quot;background-color: initial;&quot;&gt;2.适用ERP系统：店小秘&lt;/span&gt;&lt;/p&gt;&lt;p&gt;&lt;span style=&quot;background-color: initial;&quot;&gt;3.制图：Jason Wu.&lt;/span&gt;&lt;/p&gt;" style="text;html=1;whiteSpace=wrap;overflow=hidden;rounded=0;" parent="1" vertex="1">
          <mxGeometry x="30" y="30" width="280" height="120" as="geometry" />
        </mxCell>
        <mxCell id="e5-1EZwCJgzJsYeVNrzZ-15" style="edgeStyle=orthogonalEdgeStyle;rounded=0;orthogonalLoop=1;jettySize=auto;html=1;entryX=0;entryY=0.5;entryDx=0;entryDy=0;" edge="1" parent="1" source="e5-1EZwCJgzJsYeVNrzZ-8" target="e5-1EZwCJgzJsYeVNrzZ-13">
          <mxGeometry relative="1" as="geometry" />
        </mxCell>
        <mxCell id="e5-1EZwCJgzJsYeVNrzZ-16" style="edgeStyle=orthogonalEdgeStyle;rounded=0;orthogonalLoop=1;jettySize=auto;html=1;exitX=0.5;exitY=0;exitDx=0;exitDy=0;entryX=0;entryY=0.5;entryDx=0;entryDy=0;" edge="1" parent="1" source="e5-1EZwCJgzJsYeVNrzZ-8" target="e5-1EZwCJgzJsYeVNrzZ-14">
          <mxGeometry relative="1" as="geometry" />
        </mxCell>
        <mxCell id="e5-1EZwCJgzJsYeVNrzZ-17" value="失败" style="edgeLabel;html=1;align=center;verticalAlign=middle;resizable=0;points=[];" vertex="1" connectable="0" parent="e5-1EZwCJgzJsYeVNrzZ-16">
          <mxGeometry x="-0.7371" y="1" relative="1" as="geometry">
            <mxPoint as="offset" />
          </mxGeometry>
        </mxCell>
        <mxCell id="e5-1EZwCJgzJsYeVNrzZ-19" style="edgeStyle=orthogonalEdgeStyle;rounded=0;orthogonalLoop=1;jettySize=auto;html=1;entryX=0;entryY=0.5;entryDx=0;entryDy=0;" edge="1" parent="1" source="e5-1EZwCJgzJsYeVNrzZ-8" target="e5-1EZwCJgzJsYeVNrzZ-18">
          <mxGeometry relative="1" as="geometry" />
        </mxCell>
        <mxCell id="e5-1EZwCJgzJsYeVNrzZ-22" style="edgeStyle=orthogonalEdgeStyle;rounded=0;orthogonalLoop=1;jettySize=auto;html=1;entryX=0;entryY=0.5;entryDx=0;entryDy=0;" edge="1" parent="1" source="e5-1EZwCJgzJsYeVNrzZ-8" target="e5-1EZwCJgzJsYeVNrzZ-21">
          <mxGeometry relative="1" as="geometry" />
        </mxCell>
        <mxCell id="e5-1EZwCJgzJsYeVNrzZ-24" value="通过" style="edgeLabel;html=1;align=center;verticalAlign=middle;resizable=0;points=[];" vertex="1" connectable="0" parent="e5-1EZwCJgzJsYeVNrzZ-22">
          <mxGeometry x="-0.64" y="-1" relative="1" as="geometry">
            <mxPoint as="offset" />
          </mxGeometry>
        </mxCell>
        <mxCell id="e5-1EZwCJgzJsYeVNrzZ-8" value="TEMU买手&lt;div&gt;产品初审&lt;/div&gt;" style="rhombus;whiteSpace=wrap;html=1;" vertex="1" parent="1">
          <mxGeometry x="340" y="420" width="80" height="80" as="geometry" />
        </mxCell>
        <mxCell id="e5-1EZwCJgzJsYeVNrzZ-9" value="产品采集" style="rounded=0;whiteSpace=wrap;html=1;" vertex="1" parent="1">
          <mxGeometry x="120" y="440" width="60" height="40" as="geometry" />
        </mxCell>
        <mxCell id="e5-1EZwCJgzJsYeVNrzZ-10" value="创建产品" style="rounded=0;whiteSpace=wrap;html=1;" vertex="1" parent="1">
          <mxGeometry x="220" y="440" width="60" height="40" as="geometry" />
        </mxCell>
        <mxCell id="e5-1EZwCJgzJsYeVNrzZ-13" value="产品结束" style="rounded=1;whiteSpace=wrap;html=1;" vertex="1" parent="1">
          <mxGeometry x="420" y="360" width="80" height="40" as="geometry" />
        </mxCell>
        <mxCell id="e5-1EZwCJgzJsYeVNrzZ-14" value="搁置超时，自行通过降价激活" style="rounded=1;whiteSpace=wrap;html=1;fillColor=#f8cecc;strokeColor=#b85450;" vertex="1" parent="1">
          <mxGeometry x="420" y="300" width="80" height="40" as="geometry" />
        </mxCell>
        <mxCell id="e5-1EZwCJgzJsYeVNrzZ-33" style="edgeStyle=orthogonalEdgeStyle;rounded=0;orthogonalLoop=1;jettySize=auto;html=1;" edge="1" parent="1" source="e5-1EZwCJgzJsYeVNrzZ-18" target="e5-1EZwCJgzJsYeVNrzZ-32">
          <mxGeometry relative="1" as="geometry" />
        </mxCell>
        <mxCell id="e5-1EZwCJgzJsYeVNrzZ-18" value="免寄样" style="rounded=0;whiteSpace=wrap;html=1;" vertex="1" parent="1">
          <mxGeometry x="510" y="440" width="80" height="40" as="geometry" />
        </mxCell>
        <mxCell id="e5-1EZwCJgzJsYeVNrzZ-35" style="edgeStyle=orthogonalEdgeStyle;rounded=0;orthogonalLoop=1;jettySize=auto;html=1;entryX=0.5;entryY=0;entryDx=0;entryDy=0;" edge="1" parent="1" source="e5-1EZwCJgzJsYeVNrzZ-21" target="e5-1EZwCJgzJsYeVNrzZ-26">
          <mxGeometry relative="1" as="geometry" />
        </mxCell>
        <mxCell id="e5-1EZwCJgzJsYeVNrzZ-21" value="寄样" style="rounded=0;whiteSpace=wrap;html=1;fillColor=#f8cecc;strokeColor=#b85450;" vertex="1" parent="1">
          <mxGeometry x="510" y="500" width="80" height="40" as="geometry" />
        </mxCell>
        <mxCell id="e5-1EZwCJgzJsYeVNrzZ-41" style="edgeStyle=orthogonalEdgeStyle;rounded=0;orthogonalLoop=1;jettySize=auto;html=1;" edge="1" parent="1" source="e5-1EZwCJgzJsYeVNrzZ-25">
          <mxGeometry relative="1" as="geometry">
            <mxPoint x="590" y="680" as="targetPoint" />
          </mxGeometry>
        </mxCell>
        <mxCell id="e5-1EZwCJgzJsYeVNrzZ-25" value="非实物寄样（上传图片或视频）" style="rounded=0;whiteSpace=wrap;html=1;fillColor=#f8cecc;strokeColor=#b85450;" vertex="1" parent="1">
          <mxGeometry x="550" y="600" width="80" height="40" as="geometry" />
        </mxCell>
        <mxCell id="e5-1EZwCJgzJsYeVNrzZ-26" value="实物寄样至TEMU仓库（建议放弃产品）" style="rounded=0;whiteSpace=wrap;html=1;fillColor=#f8cecc;strokeColor=#b85450;" vertex="1" parent="1">
          <mxGeometry x="450" y="600" width="80" height="40" as="geometry" />
        </mxCell>
        <mxCell id="e5-1EZwCJgzJsYeVNrzZ-34" style="edgeStyle=orthogonalEdgeStyle;rounded=0;orthogonalLoop=1;jettySize=auto;html=1;entryX=0;entryY=0.5;entryDx=0;entryDy=0;" edge="1" parent="1" source="e5-1EZwCJgzJsYeVNrzZ-29" target="e5-1EZwCJgzJsYeVNrzZ-32">
          <mxGeometry relative="1" as="geometry" />
        </mxCell>
        <mxCell id="e5-1EZwCJgzJsYeVNrzZ-29" value="审版完成" style="rounded=0;whiteSpace=wrap;html=1;" vertex="1" parent="1">
          <mxGeometry x="640" y="500" width="80" height="40" as="geometry" />
        </mxCell>
        <mxCell id="e5-1EZwCJgzJsYeVNrzZ-44" style="edgeStyle=orthogonalEdgeStyle;rounded=0;orthogonalLoop=1;jettySize=auto;html=1;entryX=0;entryY=0.5;entryDx=0;entryDy=0;" edge="1" parent="1" source="e5-1EZwCJgzJsYeVNrzZ-32" target="e5-1EZwCJgzJsYeVNrzZ-42">
          <mxGeometry relative="1" as="geometry" />
        </mxCell>
        <mxCell id="e5-1EZwCJgzJsYeVNrzZ-45" value="通过" style="edgeLabel;html=1;align=center;verticalAlign=middle;resizable=0;points=[];" vertex="1" connectable="0" parent="e5-1EZwCJgzJsYeVNrzZ-44">
          <mxGeometry x="-0.1755" y="-2" relative="1" as="geometry">
            <mxPoint as="offset" />
          </mxGeometry>
        </mxCell>
        <mxCell id="e5-1EZwCJgzJsYeVNrzZ-51" style="edgeStyle=orthogonalEdgeStyle;rounded=0;orthogonalLoop=1;jettySize=auto;html=1;entryX=0;entryY=0.5;entryDx=0;entryDy=0;" edge="1" parent="1" source="e5-1EZwCJgzJsYeVNrzZ-32" target="e5-1EZwCJgzJsYeVNrzZ-50">
          <mxGeometry relative="1" as="geometry" />
        </mxCell>
        <mxCell id="e5-1EZwCJgzJsYeVNrzZ-32" value="核价" style="rounded=0;whiteSpace=wrap;html=1;" vertex="1" parent="1">
          <mxGeometry x="760" y="440" width="80" height="40" as="geometry" />
        </mxCell>
        <mxCell id="e5-1EZwCJgzJsYeVNrzZ-36" style="edgeStyle=orthogonalEdgeStyle;rounded=0;orthogonalLoop=1;jettySize=auto;html=1;entryX=0.5;entryY=-0.109;entryDx=0;entryDy=0;entryPerimeter=0;" edge="1" parent="1" source="e5-1EZwCJgzJsYeVNrzZ-21" target="e5-1EZwCJgzJsYeVNrzZ-25">
          <mxGeometry relative="1" as="geometry" />
        </mxCell>
        <mxCell id="e5-1EZwCJgzJsYeVNrzZ-40" style="edgeStyle=orthogonalEdgeStyle;rounded=0;orthogonalLoop=1;jettySize=auto;html=1;entryX=0.576;entryY=1.056;entryDx=0;entryDy=0;entryPerimeter=0;" edge="1" parent="1" source="e5-1EZwCJgzJsYeVNrzZ-26" target="e5-1EZwCJgzJsYeVNrzZ-29">
          <mxGeometry relative="1" as="geometry">
            <Array as="points">
              <mxPoint x="490" y="680" />
              <mxPoint x="686" y="680" />
            </Array>
          </mxGeometry>
        </mxCell>
        <mxCell id="e5-1EZwCJgzJsYeVNrzZ-42" value="待下首单" style="rounded=0;whiteSpace=wrap;html=1;" vertex="1" parent="1">
          <mxGeometry x="1050" y="440" width="80" height="40" as="geometry" />
        </mxCell>
        <mxCell id="e5-1EZwCJgzJsYeVNrzZ-52" style="edgeStyle=orthogonalEdgeStyle;rounded=0;orthogonalLoop=1;jettySize=auto;html=1;entryX=0;entryY=0.5;entryDx=0;entryDy=0;" edge="1" parent="1" source="e5-1EZwCJgzJsYeVNrzZ-50" target="e5-1EZwCJgzJsYeVNrzZ-42">
          <mxGeometry relative="1" as="geometry" />
        </mxCell>
        <mxCell id="e5-1EZwCJgzJsYeVNrzZ-53" style="edgeStyle=orthogonalEdgeStyle;rounded=0;orthogonalLoop=1;jettySize=auto;html=1;entryX=0.5;entryY=0;entryDx=0;entryDy=0;" edge="1" parent="1" source="e5-1EZwCJgzJsYeVNrzZ-50" target="e5-1EZwCJgzJsYeVNrzZ-32">
          <mxGeometry relative="1" as="geometry">
            <Array as="points">
              <mxPoint x="800" y="330" />
            </Array>
          </mxGeometry>
        </mxCell>
        <mxCell id="e5-1EZwCJgzJsYeVNrzZ-54" value="不符合预想，还价" style="edgeLabel;html=1;align=center;verticalAlign=middle;resizable=0;points=[];" vertex="1" connectable="0" parent="e5-1EZwCJgzJsYeVNrzZ-53">
          <mxGeometry x="-0.4147" y="-1" relative="1" as="geometry">
            <mxPoint as="offset" />
          </mxGeometry>
        </mxCell>
        <mxCell id="e5-1EZwCJgzJsYeVNrzZ-50" value="TEMU给出&lt;div&gt;建议价&lt;/div&gt;" style="rhombus;whiteSpace=wrap;html=1;" vertex="1" parent="1">
          <mxGeometry x="910" y="330" width="80" height="80" as="geometry" />
        </mxCell>
        <mxCell id="e5-1EZwCJgzJsYeVNrzZ-55" style="edgeStyle=orthogonalEdgeStyle;rounded=0;orthogonalLoop=1;jettySize=auto;html=1;entryX=1;entryY=0.5;entryDx=0;entryDy=0;" edge="1" parent="1" source="e5-1EZwCJgzJsYeVNrzZ-50" target="e5-1EZwCJgzJsYeVNrzZ-13">
          <mxGeometry relative="1" as="geometry">
            <Array as="points">
              <mxPoint x="950" y="290" />
              <mxPoint x="705" y="290" />
              <mxPoint x="705" y="381" />
              <mxPoint x="500" y="381" />
            </Array>
          </mxGeometry>
        </mxCell>
        <mxCell id="e5-1EZwCJgzJsYeVNrzZ-56" value="多次核价无法接受" style="edgeLabel;html=1;align=center;verticalAlign=middle;resizable=0;points=[];" vertex="1" connectable="0" parent="e5-1EZwCJgzJsYeVNrzZ-55">
          <mxGeometry x="-0.5516" y="-2" relative="1" as="geometry">
            <mxPoint as="offset" />
          </mxGeometry>
        </mxCell>
        <mxCell id="e5-1EZwCJgzJsYeVNrzZ-57" value="采购产品" style="rounded=0;whiteSpace=wrap;html=1;" vertex="1" parent="1">
          <mxGeometry x="1170" y="440" width="80" height="40" as="geometry" />
        </mxCell>
        <mxCell id="e5-1EZwCJgzJsYeVNrzZ-58" value="到货并质检" style="rounded=0;whiteSpace=wrap;html=1;" vertex="1" parent="1">
          <mxGeometry x="1290" y="440" width="80" height="40" as="geometry" />
        </mxCell>
        <mxCell id="e5-1EZwCJgzJsYeVNrzZ-59" value="提交尺寸图" style="rounded=0;whiteSpace=wrap;html=1;" vertex="1" parent="1">
          <mxGeometry x="1170" y="500" width="80" height="40" as="geometry" />
        </mxCell>
        <mxCell id="e5-1EZwCJgzJsYeVNrzZ-60" value="申请备货单" style="rounded=0;whiteSpace=wrap;html=1;" vertex="1" parent="1">
          <mxGeometry x="1290" y="500" width="80" height="40" as="geometry" />
        </mxCell>
        <mxCell id="e5-1EZwCJgzJsYeVNrzZ-70" style="edgeStyle=orthogonalEdgeStyle;rounded=0;orthogonalLoop=1;jettySize=auto;html=1;entryX=0;entryY=0.5;entryDx=0;entryDy=0;" edge="1" parent="1" source="e5-1EZwCJgzJsYeVNrzZ-66" target="e5-1EZwCJgzJsYeVNrzZ-68">
          <mxGeometry relative="1" as="geometry" />
        </mxCell>
        <mxCell id="e5-1EZwCJgzJsYeVNrzZ-66" value="TEMU仓库&lt;div&gt;质检&lt;/div&gt;" style="rhombus;whiteSpace=wrap;html=1;" vertex="1" parent="1">
          <mxGeometry x="1430" y="450" width="80" height="80" as="geometry" />
        </mxCell>
        <mxCell id="e5-1EZwCJgzJsYeVNrzZ-68" value="上新" style="rounded=0;whiteSpace=wrap;html=1;" vertex="1" parent="1">
          <mxGeometry x="1570" y="470" width="80" height="40" as="geometry" />
        </mxCell>
        <mxCell id="e5-1EZwCJgzJsYeVNrzZ-69" value="平台新品初期流量扶持" style="rounded=0;whiteSpace=wrap;html=1;" vertex="1" parent="1">
          <mxGeometry x="1690" y="470" width="80" height="40" as="geometry" />
        </mxCell>
        <mxCell id="e5-1EZwCJgzJsYeVNrzZ-71" value="流量反馈" style="rounded=0;whiteSpace=wrap;html=1;" vertex="1" parent="1">
          <mxGeometry x="1810" y="470" width="80" height="40" as="geometry" />
        </mxCell>
      </root>
    </mxGraphModel>
  </diagram>
</mxfile>
